<svg width="64" height="64" viewBox="0 0 64 64" fill="none" xmlns="http://www.w3.org/2000/svg">
<path d="M21 31.9999C21 31.9799 21 31.9609 21 31.9409C21 29.0235 22.1589 26.2256 24.2218 24.1627C26.2847 22.0998 29.0826 20.9409 32 20.9409C34.9174 20.9409 37.7153 22.0998 39.7782 24.1627C41.8411 26.2256 43 29.0235 43 31.9409C43 31.9609 43 31.9799 43 31.9999H63V27.9409C62.9999 27.6972 62.9109 27.4619 62.7496 27.2793C62.5883 27.0966 62.3658 26.9791 62.124 26.9489L54.208 25.9599C53.693 24.0374 52.9281 22.1906 51.933 20.4669L56.833 14.1669C56.9825 13.9744 57.0566 13.734 57.0413 13.4907C57.026 13.2475 56.9224 13.0182 56.75 12.8459L51.091 7.19292C50.9186 7.02062 50.6893 6.9172 50.446 6.9021C50.2028 6.887 49.9624 6.96126 49.77 7.11092L43.47 12.0109C41.7475 11.0182 39.9025 10.2551 37.982 9.74092L36.992 1.81992C36.9625 1.57756 36.8453 1.35439 36.6625 1.19247C36.4798 1.03055 36.2441 0.941077 36 0.940918H28C27.7563 0.940987 27.521 1.03004 27.3384 1.19134C27.1557 1.35265 27.0382 1.57511 27.008 1.81692L26.018 9.74092C24.0958 10.2551 22.2496 11.02 20.527 12.0159L14.227 7.11592C14.0346 6.96626 13.7942 6.892 13.551 6.9071C13.3077 6.9222 13.0784 7.02562 12.906 7.19792L7.252 12.8499C7.07955 13.0222 6.97596 13.2515 6.96067 13.4947C6.94539 13.738 7.01947 13.9784 7.169 14.1709L12.069 20.4709C11.0768 22.194 10.314 24.0392 9.8 25.9599L1.879 26.9489C1.63664 26.9785 1.41347 27.0956 1.25155 27.2784C1.08963 27.4611 1.00016 27.6968 1 27.9409V31.9999H21Z" fill="white"/>
<path d="M56 43C55.288 43.0035 54.5901 43.199 53.98 43.566L49 38.586V34H47V39C47.0001 39.2652 47.1054 39.5195 47.293 39.707L52.566 44.98C52.199 45.5901 52.0035 46.288 52 47C52 47.7911 52.2346 48.5645 52.6741 49.2223C53.1136 49.8801 53.7384 50.3928 54.4693 50.6955C55.2002 50.9983 56.0044 51.0775 56.7804 50.9231C57.5563 50.7688 58.269 50.3878 58.8284 49.8284C59.3878 49.269 59.7688 48.5563 59.9231 47.7804C60.0775 47.0044 59.9983 46.2002 59.6955 45.4693C59.3928 44.7384 58.8801 44.1136 58.2223 43.6741C57.5645 43.2346 56.7911 43 56 43Z" fill="white"/>
<path d="M16.707 39.707C16.8946 39.5195 16.9999 39.2652 17 39V34H15V38.586L10.02 43.566C9.40985 43.199 8.71199 43.0035 8 43C7.20888 43 6.43552 43.2346 5.77772 43.6741C5.11992 44.1136 4.60723 44.7384 4.30448 45.4693C4.00173 46.2002 3.92252 47.0044 4.07686 47.7804C4.2312 48.5563 4.61216 49.269 5.17157 49.8284C5.73098 50.3878 6.44372 50.7688 7.21964 50.9231C7.99556 51.0775 8.79983 50.9983 9.53074 50.6955C10.2616 50.3928 10.8864 49.8801 11.3259 49.2223C11.7654 48.5645 12 47.7911 12 47C11.9965 46.288 11.801 45.5901 11.434 44.98L16.707 39.707Z" fill="white"/>
<path d="M23 42.586L17.293 48.293C17.1055 48.4805 17.0001 48.7348 17 49V53.141C16.0574 53.3844 15.2358 53.9632 14.6894 54.769C14.143 55.5748 13.9092 56.5522 14.0319 57.518C14.1546 58.4838 14.6253 59.3717 15.3558 60.0153C16.0863 60.6589 17.0264 61.014 18 61.014C18.9736 61.014 19.9137 60.6589 20.6442 60.0153C21.3747 59.3717 21.8455 58.4838 21.9681 57.518C22.0908 56.5522 21.857 55.5748 21.3106 54.769C20.7642 53.9632 19.9427 53.3844 19 53.141V49.414L24.707 43.707C24.8946 43.5195 25 43.2652 25 43V34H23V42.586Z" fill="white"/>
<path d="M47 53.141V49C46.9999 48.7348 46.8946 48.4805 46.707 48.293L41 42.586V34H39V43C39.0001 43.2652 39.1054 43.5195 39.293 43.707L45 49.414V53.141C44.0573 53.3844 43.2358 53.9632 42.6894 54.769C42.143 55.5748 41.9092 56.5522 42.0319 57.518C42.1546 58.4838 42.6253 59.3717 43.3558 60.0153C44.0863 60.6589 45.0264 61.014 46 61.014C46.9736 61.014 47.9137 60.6589 48.6442 60.0153C49.3747 59.3717 49.8454 58.4838 49.9681 57.518C50.0908 56.5522 49.857 55.5748 49.3106 54.769C48.7642 53.9632 47.9427 53.3844 47 53.141Z" fill="white"/>
<path d="M33 55.141V34H31V55.141C30.0574 55.3844 29.2358 55.9632 28.6894 56.769C28.143 57.5748 27.9092 58.5522 28.0319 59.518C28.1546 60.4838 28.6253 61.3717 29.3558 62.0153C30.0863 62.6589 31.0264 63.014 32 63.014C32.9736 63.014 33.9137 62.6589 34.6442 62.0153C35.3747 61.3717 35.8455 60.4838 35.9681 59.518C36.0908 58.5522 35.857 57.5748 35.3106 56.769C34.7642 55.9632 33.9427 55.3844 33 55.141Z" fill="white"/>
</svg>
